:SAMPLES-PER-SECOND 30
:FULLY-SPECIFIED
:DEGREES
320
root  0.873147 34.149 17.2104 4.64519 35.8552 0.554482
LeftUpLeg  -8.46697 7.90643 1.77791
LeftLeg  11.505 -0.246062 -0.0351396
LeftFoot  0.581059 -0.00818966 0.0110219
LeftToes  -17.724 1.92152e-006 4.03786e-008
Spine  1.74869 2.35848 -1.82716
Spine1  3.0142 5.04036 -3.76449
RightShoulder  0.0711132 4.18073 3.49306
RightArm  -29.9431 14.2722 66.7303
RightForeArm  36.4447 54.1102 14.146
RightHand  2.49006 -13.4241 -20.5463
LeftShoulder1  0.0438997 -0.144439 -9.65041
LeftArm  -22.4567 16.3372 -65.4551
LeftForeArm  26.162 -14.534 -2.61587
LeftHand  0.24903 5.72412 4.64887
HEad  -2.4155 -30.9136 1.64169
RightUpLeg  -9.70387 -10.1723 -6.98281
RightLeg  6.77468 -7.13759 -0.381863
RightFoot  9.69423 0.128134 -1.13329
RightToes  -36.1455 -0.172349 -0.271936
321
root  0.912602 34.1403 17.2598 4.64828 35.4158 0.486471
LeftUpLeg  -8.41267 7.95107 1.83189
LeftLeg  11.6707 0.138056 0.0180238
LeftFoot  0.334106 -0.00811087 0.0150147
LeftToes  -17.6389 1.92152e-006 4.03786e-008
Spine  1.72148 2.38708 -1.89345
Spine1  2.9601 5.08512 -3.86631
RightShoulder  0.0707963 3.73585 3.38502
RightArm  -23.4769 16.9914 66.4956
RightForeArm  40.0998 48.5672 11.5397
RightHand  2.83272 -13.4359 -23.3285
LeftShoulder1  0.0436889 -0.0111247 -9.75622
LeftArm  -22.5057 16.3382 -65.4846
LeftForeArm  26.2466 -14.7418 -2.65489
LeftHand  0.25017 5.66362 4.67861
HEad  -2.52235 -30.4529 1.97209
RightUpLeg  -9.83356 -10.1064 -6.91662
RightLeg  6.98595 -6.78851 -0.388294
RightFoot  9.51671 0.118555 -1.05118
RightToes  -36.1117 -0.172421 -0.272054
322
root  0.952736 34.1323 17.3123 4.66133 34.935 0.403509
LeftUpLeg  -8.34238 8.05962 1.89657
LeftLeg  11.7884 0.508212 0.0710231
LeftFoot  0.106096 -0.00773917 0.0141973
LeftToes  -17.5925 1.92152e-006 4.03786e-008
Spine  1.69982 2.42707 -1.97768
Spine1  2.92813 5.13175 -3.98217
RightShoulder  0.0699645 3.66626 3.17069
RightArm  -16.6123 18.0855 67.2652
RightForeArm  39.0018 41.2767 8.90365
RightHand  3.58766 -14.1697 -27.904
LeftShoulder1  0.0434147 0.255563 -10.0409
LeftArm  -22.4386 16.0313 -65.3204
LeftForeArm  26.1967 -14.8627 -2.67766
LeftHand  0.249706 5.61333 4.71435
HEad  -2.63215 -30.0874 2.39563
RightUpLeg  -10.038 -10.1823 -6.82311
RightLeg  7.30604 -6.25411 -0.392792
RightFoot  9.29463 0.107037 -0.939064
RightToes  -36.0883 -0.17251 -0.272192
323
root  0.992879 34.1237 17.3676 4.66749 34.5209 0.327622
LeftUpLeg  -8.27134 8.06195 1.95181
LeftLeg  11.9119 0.933428 0.133624
LeftFoot  -0.114912 -0.00708785 0.00871544
LeftToes  -17.6496 1.92152e-006 4.03786e-008
Spine  1.70698 2.49245 -2.06361
Spine1  2.95465 5.22114 -4.09818
RightShoulder  0.0685879 4.31658 3.11274
RightArm  -15.3609 17.4804 68.9117
RightForeArm  34.1684 32.7335 6.502
RightHand  4.24093 -14.336 -32.4264
LeftShoulder1  0.0430707 0.524267 -10.2796
LeftArm  -22.6308 15.4673 -65.2595
LeftForeArm  26.3083 -14.8593 -2.67699
LeftHand  0.25025 5.54844 4.80088
HEad  -3.06187 -30.0668 2.94611
RightUpLeg  -10.1858 -10.1253 -6.75142
RightLeg  7.58505 -5.89628 -0.399136
RightFoot  9.03542 0.0976334 -0.858003
RightToes  -35.7464 -0.172614 -0.272351
324
root  1.02715 34.1111 17.4278 4.67089 34.2381 0.301224
LeftUpLeg  -8.25106 7.99524 1.99054
LeftLeg  12.1939 1.26809 0.188362
LeftFoot  -0.414457 -0.00612231 -0.00202928
LeftToes  -17.528 1.92152e-006 4.03786e-008
Spine  1.74184 2.60277 -2.11166
Spine1  3.0113 5.42848 -4.17645
RightShoulder  0.0664522 6.13809 3.46506
RightArm  -26.8754 14.5082 70.1229
RightForeArm  31.8659 28.1553 5.40787
RightHand  3.80214 -12.2828 -33.9007
LeftShoulder1  0.0426502 0.7601 -10.2863
LeftArm  -23.0656 14.8882 -65.5503
LeftForeArm  26.3415 -14.8918 -2.6831
LeftHand  0.249807 5.51209 4.85194
HEad  -4.00184 -30.3171 3.25149
RightUpLeg  -10.2823 -10.1356 -6.72113
RightLeg  7.88668 -5.60117 -0.408765
RightFoot  8.75517 0.0887788 -0.785284
RightToes  -35.825 -0.172732 -0.272528
